<svg xmlns="http://www.w3.org/2000/svg" viewBox="0 0 512 512"><path d="M423.683 315.569c.052 7.011-4.099 13.325-10.46 16.275-40.022 18.564-95.66 30.088-157.224 30.088s-117.202-11.523-157.225-30.088c-6.36-2.951-10.511-9.265-10.46-16.275C89.57 147.062 120.395 0 256 0s166.43 147.062 167.683 315.569z" fill="#5a4146"/><path d="M317.793 342.844v-42.706H194.207v42.706a26.48 26.48 0 0 1-18.109 25.123l-84.126 28.042c-18.023 6.008-30.179 22.875-30.179 41.873v56.463c0 9.751 7.904 17.655 17.655 17.655h353.103c9.751 0 17.655-7.904 17.655-17.655v-56.463c0-18.998-12.157-35.865-30.18-41.873L335.9 367.967a26.483 26.483 0 0 1-18.107-25.123z" fill="#e6af78"/><path d="M194.207 342.844c0 10.685-6.453 20.173-16.161 24.298 98.92 16.858 139.72-53.762 139.72-53.762l.028-.019v-13.223H194.207v42.706z" fill="#d29b6e"/><path d="M420.026 396.009l-68.74-22.913c-32.717 44.385-70.904 69.187-95.286 77.111-24.382-7.924-62.569-32.726-95.286-77.111l-68.74 22.913c-18.024 6.008-30.18 22.875-30.18 41.873v56.463c0 9.75 7.905 17.655 17.655 17.655h353.103c9.75 0 17.655-7.905 17.655-17.655v-56.463c0-18.999-12.157-35.865-30.181-41.873z" fill="#e4eaf6"/><g fill="#d7deed"><path d="M122.071 457.519l-48.97-48.97c-7.06 7.908-11.308 18.219-11.308 29.332v56.463c0 9.751 7.904 17.655 17.655 17.655h52.966v-29.512a35.31 35.31 0 0 0-10.343-24.968zM389.929 457.519l48.97-48.97c7.06 7.908 11.308 18.219 11.308 29.332v56.463c0 9.751-7.904 17.655-17.655 17.655h-52.966v-29.512a35.31 35.31 0 0 1 10.343-24.968zM146.505 383.569c35.457 48.108 76.991 74.643 104.039 83.431l5.456 1.77 5.457-1.771c27.048-8.789 68.582-35.324 104.039-83.431l3.166-4.682-17.376-5.792c-32.716 44.386-70.903 69.188-95.285 77.112-24.382-7.924-62.569-32.726-95.286-77.111l-17.376 5.792 3.166 4.682z"/></g><path d="M142.72 185.469l-10.251-.033c-9.772-.031-17.711 7.883-17.711 17.655v34.899c0 9.888 8.12 17.848 18.007 17.652l15.215-.303-5.26-69.87z" fill="#707487"/><path d="M132.47 185.436c-.02 0-.036.006-.056.006v70.172c.119 0 .232.031.352.029l15.215-.303-5.26-69.869-10.251-.035z" fill="#65687a"/><path d="M369.28 185.469l10.251-.033c9.772-.031 17.711 7.883 17.711 17.655v34.899c0 9.888-8.12 17.848-18.007 17.652l-15.215-.303 5.26-69.87z" fill="#707487"/><path d="M379.53 185.436c.02 0 .036.006.056.006v70.172c-.119 0-.232.031-.352.029l-15.215-.303 5.26-69.869 10.251-.035z" fill="#65687a"/><path d="M141.241 105.931v38.061c0 15.816.607 31.625 1.82 47.393l5.087 66.129a52.966 52.966 0 0 0 22.435 39.329l53.308 37.315a55.967 55.967 0 0 0 32.095 10.118h.026a55.962 55.962 0 0 0 32.095-10.118l53.308-37.315a52.96 52.96 0 0 0 22.435-39.329l5.087-66.129a617.903 617.903 0 0 0 1.82-47.393v-38.061H141.241z" fill="#f0c087"/><path d="M370.097 105.931H141.241v38.063c0 4.905.166 9.806.282 14.709v.003c.14 5.895.364 11.785.673 17.673v.004c.263 5.002.481 10.006.865 15.001l5.087 66.129a52.964 52.964 0 0 0 22.436 39.329l53.308 37.315a55.973 55.973 0 0 0 32.095 10.116c-14.166 0-29.735-24.384-39.503-42.876-6.435-12.181-9.869-25.684-10.126-39.458l-1.491-79.928c-.118-6.356 4.487-11.763 10.75-12.85 47.34-8.216 84.919-21.641 106.401-31.126 17.03 28.15 39.46 36.57 42.368 37.564l2.777.949h2.631c.31-5.882.536-11.766.679-17.655l-.376-52.962z" fill="#e6af78"/><path d="M132.414 97.103v61.793c104.585 0 184.198-36.41 197.532-44.455 14.33 35.627 40.151 44.455 40.151 44.455h9.49V97.103H132.414z" fill="#5a4146"/><path d="M379.234 255.641l-15.147-.301c-6.74 12.245-26.929 32.295-87.123 32.295v17.655c80.439 0 101.08-34.278 106.324-50.073-1.308.279-2.656.452-4.054.424z" fill="#464655"/><path d="M269.241 308.966h-8.828c-7.313 0-13.241-5.929-13.241-13.241 0-7.313 5.929-13.241 13.241-13.241h8.828c7.313 0 13.241 5.929 13.241 13.241.001 7.312-5.928 13.241-13.241 13.241z" fill="#5b5d6e"/></svg>