<svg xmlns="http://www.w3.org/2000/svg" height="95.41" width="81.328" viewBox="0 0 81.327629 95.410408"><path fill="#fff" d="M79.713 48.3c3-4.7.9-10.6.9-10.6-.9 6-4.3 7.5-4.3 7.5-3.9-1.3-9.7 1.4-13.8 6.6-4.7 5.9-5.4 13-1.6 15.7 3.8 2.7 10.7.2 15.4-5.8 3.6-4.6 4.8-10 3.4-13.4-.1 0 0 0 0 0m-11.9-12.4c2.5-6 2.5-12 .3-15.5 1.3-6.6-3.1-12.5-3.1-12.5.7 5-.5 8.1-1.5 9.7-4.4-.3-9.7 4.3-12.6 11.2-3.3 7.9-2.2 15.9 2.5 17.9 4.6 1.9 11.1-2.9 14.4-10.8M39.913 9c0-1.9.5-5.1 3.5-9 0 0-6 2.7-8.4 8.3-4 1.3-7.7 6.7-8.9 13.6-1.4 8.5 1.5 16 6.5 16.8 5 .8 10.2-5.3 11.6-13.8 1.1-7.1-.7-13.5-4.3-15.9m-24 13.2c-.7-1.8-1.3-4.8-.2-9.2 0 0-3.1 3.4-4.1 8.1-4.4.4-8.1 5.5-8.8 12.2-.7 7.6 2.8 14.5 7.9 15.4 5.1.9 9.8-4.6 10.5-12.2.5-6.2-1.7-11.9-5.3-14.3M.413 64.7s.7-9.2 14.8-10.1c6-.4 13.9-13.4 20.8-12.7 6.9.7 18.9 4.1 16.9 19.9-1.4 11 7.9 8.9 7.3 16.9-.6 8-3.6 13-10.6 15.8-7 2.8-14.9-1.3-19.8-6.3s-7.4-5-16.1-4.9c-8.6.1-15.5-8.3-13.3-18.6"/></svg>
